<?xml version="1.0" encoding="utf-8"?>
<!-- Generator: Adobe Illustrator 16.0.0, SVG Export Plug-In . SVG Version: 6.00 Build 0)  -->
<!DOCTYPE svg PUBLIC "-//W3C//DTD SVG 1.1//EN" "http://www.w3.org/Graphics/SVG/1.1/DTD/svg11.dtd">
<svg version="1.1" id="Layer_1" xmlns="http://www.w3.org/2000/svg" xmlns:xlink="http://www.w3.org/1999/xlink" x="0px" y="0px"
	 width="100%" height="100%" viewBox="0 0 100 100" enable-background="new 0 0 100 100" xml:space="preserve">
<path fill="#030202" d="M8.433,61.53h22.5c4.77,0,9.9-4.41,10.8-9.18l1.44-8.55c0.81-4.5-1.44-8.91-4.95-11.34
	c4.32-2.52,8.19-6.93,9-11.16l1.17-6.84c0.81-4.77-2.79-9.18-7.56-9.18h-22.5c-0.99,0-1.8,0.72-1.98,1.71l-9.27,52.83
	C6.903,60.81,7.442,61.53,8.433,61.53z M10.772,58.2l4.23-24.03h17.01c4.95,0,8.82,4.5,7.92,9.54l-1.53,8.73
	c-0.54,2.88-4.05,5.76-6.93,5.76H10.772z M15.633,30.84l3.87-22.23h20.7c2.88,0,5.4,2.88,4.86,5.76l-1.17,6.93
	c-0.9,4.86-6.48,9.54-11.25,9.54H15.633z"/>
<path fill="#030202" d="M51.632,61.53c0.99,0,1.89-0.72,2.07-1.8l5.67-32.13h13.23c1.08,0,1.89-0.72,2.07-1.8
	c0.18-0.99-0.45-1.71-1.44-1.71h-12.6c-2.07,0-4.59,2.07-4.95,4.14l-5.49,31.5C50.012,60.81,50.552,61.53,51.632,61.53z"/>
<path fill="#030202" d="M78.542,61.53h20.16c0.99,0,1.89-0.72,2.07-1.8l4.68-26.64c0.9-4.86-2.61-9-7.38-9h-11.61
	c-0.99,0-1.89,0.72-2.07,1.71c-0.18,0.99,0.45,1.8,1.53,1.8h11.16c2.88,0,5.31,2.88,4.77,5.76l-1.35,7.56h-18.36
	c-2.07,0-4.5,2.07-4.86,4.14l-2.16,12.33C74.762,59.46,76.472,61.53,78.542,61.53z M78.542,58.02l2.43-13.59h18.9l-2.34,13.59
	H78.542z"/>
<path fill="#030202" d="M114.361,61.53h20.16c0.99,0,1.89-0.81,2.07-1.8l9.27-52.65c0.18-1.08-0.36-1.8-1.44-1.8
	c-0.99,0-1.89,0.72-2.07,1.8l-2.97,17.01h-18.45c-2.07,0-4.41,2.07-4.77,4.05l-5.22,29.25
	C110.581,59.46,112.291,61.53,114.361,61.53z M114.451,58.02l5.31-30.42h18.99l-5.4,30.42H114.451z"/>
<path fill="#030202" d="M170.25,61.53h22.5c4.77,0,9.9-4.41,10.8-9.18l1.44-8.55c0.81-4.5-1.44-8.91-4.95-11.34
	c4.32-2.52,8.19-6.93,9-11.16l1.17-6.84c0.81-4.77-2.79-9.18-7.56-9.18h-22.5c-0.99,0-1.8,0.72-1.98,1.71l-9.27,52.83
	C168.72,60.81,169.26,61.53,170.25,61.53z M172.59,58.2l4.23-24.03h17.01c4.95,0,8.82,4.5,7.92,9.54l-1.53,8.73
	c-0.54,2.88-4.05,5.76-6.93,5.76H172.59z M177.45,30.84l3.87-22.23h20.7c2.88,0,5.4,2.88,4.86,5.76l-1.17,6.93
	c-0.9,4.86-6.48,9.54-11.25,9.54H177.45z"/>
<path fill="#030202" d="M220.919,61.53h11.25c1.08,0,1.89-0.72,2.07-1.71c0.18-1.08-0.36-1.8-1.44-1.8h-11.16
	c-2.88,0-5.31-2.88-4.77-5.76l1.35-7.74h20.7c1.08,0,1.89-0.72,2.07-1.71l2.61-14.58c0.36-2.07-1.35-4.14-3.42-4.14h-17.73
	c-2.07,0-4.59,2.07-4.95,4.14l-4.23,24.12C212.459,57.12,216.059,61.53,220.919,61.53z M218.849,41.1l2.34-13.5h18.99l-2.43,13.5
	H218.849z"/>
<path fill="#030202" d="M251.609,61.53h3.24c1.08,0,1.98-0.72,2.16-1.71c0.18-1.08-0.45-1.8-1.53-1.8h-3.78l8.91-50.94
	c0.18-0.99-0.36-1.8-1.44-1.8c-0.99,0-1.89,0.81-2.07,1.8l-8.91,50.31C247.829,59.46,249.539,61.53,251.609,61.53z"/>
<path fill="#030202" d="M268.708,61.53h3.24c1.08,0,1.98-0.72,2.16-1.71c0.18-1.08-0.45-1.8-1.53-1.8h-3.78l8.91-50.94
	c0.18-0.99-0.36-1.8-1.44-1.8c-0.99,0-1.89,0.81-2.07,1.8l-8.91,50.31C264.928,59.46,266.638,61.53,268.708,61.53z"/>
<path fill="#030202" d="M283.468,61.53c0.99,0,1.89-0.72,2.07-1.8l6.03-33.84c0.18-1.08-0.45-1.8-1.53-1.8
	c-0.99,0-1.89,0.72-2.07,1.8l-5.94,33.84C281.848,60.81,282.388,61.53,283.468,61.53z M290.938,18.96c1.44,0,2.7-1.08,2.97-2.61
	c0.27-1.44-0.63-2.52-2.07-2.52c-1.44,0-2.61,1.08-2.88,2.52C288.688,17.88,289.498,18.96,290.938,18.96z"/>
<path fill="#030202" d="M296.788,61.53c0.99,0,1.89-0.72,2.07-1.8l5.67-32.13h18.99l-5.67,32.13c-0.18,1.08,0.36,1.8,1.44,1.8
	c0.99,0,1.89-0.72,2.07-1.8l5.58-31.59c0.36-1.98-1.35-4.05-3.42-4.05h-20.07c-1.08,0-1.98,0.72-2.16,1.8l-5.94,33.84
	C295.167,60.81,295.708,61.53,296.788,61.53z"/>
<path fill="#030202" d="M332.968,80.34h11.43c4.77,0,9.99-4.41,10.8-9.18l8.01-45.27c0.18-1.08-0.45-1.8-1.53-1.8h-20.07
	c-2.07,0-4.59,2.07-4.95,4.14l-5.13,29.16c-0.36,1.98,1.44,4.14,3.42,4.14h18.36l-1.62,9.54c-0.54,2.88-3.96,5.76-6.84,5.76h-11.25
	c-0.99,0-1.89,0.72-2.07,1.71C331.348,79.62,331.978,80.34,332.968,80.34z M335.038,58.02l5.31-30.42h18.99l-5.4,30.42H335.038z"/>
<path fill="#030202" d="M375.897,61.53h11.25c1.08,0,1.89-0.72,2.07-1.71c0.18-1.08-0.36-1.8-1.44-1.8h-11.16
	c-2.88,0-5.31-2.88-4.77-5.76l1.35-7.74h20.7c1.08,0,1.89-0.72,2.07-1.71l2.61-14.58c0.36-2.07-1.35-4.14-3.42-4.14h-17.73
	c-2.07,0-4.59,2.07-4.95,4.14l-4.23,24.12C367.438,57.12,371.038,61.53,375.897,61.53z M373.828,41.1l2.34-13.5h18.99l-2.43,13.5
	H373.828z"/>
<path fill="#030202" d="M404.248,61.53c0.99,0,1.89-0.72,2.07-1.8l5.67-32.13h13.23c1.08,0,1.89-0.72,2.07-1.8
	c0.18-0.99-0.45-1.71-1.44-1.71h-12.6c-2.07,0-4.59,2.07-4.95,4.14l-5.49,31.5C402.628,60.81,403.167,61.53,404.248,61.53z"/>
</svg>
